<svg id="Capa_1" enable-background="new 0 0 512 512" height="512" viewBox="0 0 512 512" width="512" xmlns="http://www.w3.org/2000/svg"><path d="m9.787 460.787 110.319-110.319c11.444 16.587 25.84 30.983 42.426 42.427l-110.319 110.318c-11.716 11.716-30.711 11.716-42.426 0-11.716-11.716-11.716-30.71 0-42.426z"/><path d="m35 50c0-27.57 22.43-50 50-50s50 22.43 50 50-22.43 50-50 50-50-22.43-50-50z"/><path d="m377 50c0-27.57 22.43-50 50-50s50 22.43 50 50-22.43 50-50 50-50-22.43-50-50z"/><path d="m201 357c0-30.327 24.673-55 55-55s55 24.673 55 55v23.278c-16.808 7.528-35.423 11.722-55 11.722s-38.192-4.194-55-11.722z"/><circle cx="256" cy="242" r="30"/><path d="m373.301 421.169c14.302 12.975 33.224 20.831 53.699 20.831 20.67 0 39.534-7.88 53.747-20.794 19.062 15.601 31.253 39.298 31.253 65.794v10c0 8.284-6.716 15-15 15h-140c-8.284 0-15-6.716-15-15v-10c0-26.518 12.212-50.231 31.301-65.831z"/><path d="m427 312c27.57 0 50 22.43 50 50s-22.43 50-50 50c-25.331 0-46.308-18.939-49.551-43.398 14.525-15.76 25.726-34.029 33.128-53.818 5.149-1.795 10.671-2.784 16.423-2.784z"/><path d="m31.253 109.206c14.213 12.914 33.077 20.794 53.747 20.794s39.534-7.88 53.747-20.794c6.162 5.043 11.6 10.937 16.147 17.493-24.148 18.78-42.961 44.109-53.741 73.301h-86.153c-8.284 0-15-6.716-15-15v-10c0-26.496 12.191-50.194 31.253-65.794z"/><path d="m357.106 126.699c4.546-6.557 9.985-12.45 16.147-17.493 14.213 12.914 33.077 20.794 53.747 20.794s39.534-7.88 53.747-20.794c19.062 15.601 31.253 39.298 31.253 65.794v10c0 8.284-6.716 15-15 15h-86.153c-10.779-29.192-29.593-54.521-53.741-73.301z"/><path d="m256 122c74.439 0 135 60.561 135 135 0 42.251-19.516 80.025-50 104.797v-4.797c0-31.171-16.877-58.46-41.962-73.255 10.487-10.809 16.962-25.531 16.962-41.745 0-33.084-26.916-60-60-60s-60 26.916-60 60c0 16.214 6.475 30.936 16.962 41.745-25.085 14.794-41.962 42.084-41.962 73.255v4.797c-30.484-24.773-50-62.546-50-104.797 0-74.439 60.561-135 135-135z"/></svg>